#!OML:ASF E:\CV Data\Top Level 1\Subject 1\Session 1\player.ASF
:FULLY-SPECIFIED
:DEGREES
454
root 5.89047 15.7004 -21.2946 -2.22378 4.69034 -2.77038
lowerback 20.0806 -0.528439 5.54386
upperback 3.77417 0.854393 4.4811
thorax -7.12705 0.341881 1.47219
lowerneck -15.0386 -8.90707 -15.4923
upperneck -6.05729 -9.38112 13.1371
head 1.95873 -4.14121 5.88527
rclavicle 1.82882e-014 -1.27222e-014
rhumerus 36.3915 26.7413 -58.5462
rradius 92.387
rwrist 24.2422
rhand -50.1103 24.9743
rfingers 7.12502
rthumb -22.695 -3.71115
lclavicle 1.82882e-014 -1.27222e-014
lhumerus 36.2715 -21.9812 80.9588
lradius 78.1774
lwrist 41.8344
lhand -31.8101 26.9012
lfingers 7.12502
lthumb -5.06538 56.8207
rfemur -28.8517 -8.13373 18.0071
rtibia 67.2077
rfoot -30.4157 -15.6237
rtoes -11.7972
lfemur -30.5786 7.60737 -12.8194
ltibia 63.4285
lfoot -27.4462 -1.71672
ltoes -11.3332
455
root 5.89645 15.687 -21.2569 -2.49484 4.76411 -2.80518
lowerback 19.6671 -0.553575 5.27853
upperback 3.71426 0.755057 4.73329
thorax -6.98054 0.304139 1.91821
lowerneck -14.9958 -8.88187 -16.0345
upperneck -5.71921 -9.28495 13.0433
head 2.05485 -4.08893 5.9454
rclavicle -9.14409e-015 -2.06736e-014
rhumerus 38.4586 26.1962 -57.2536
rradius 92.5664
rwrist 24.2271
rhand -50.3792 25.7139
rfingers 7.12502
rthumb -22.953 -2.93969
lclavicle -9.14409e-015 -2.06736e-014
lhumerus 38.1202 -21.0127 80.1065
lradius 78.5624
lwrist 41.5121
lhand -31.9293 26.5268
lfingers 7.12502
lthumb -5.18051 56.4435
rfemur -28.4184 -8.30119 17.9535
rtibia 67.292
rfoot -30.629 -15.6343
rtoes -11.8681
lfemur -30.2089 7.61096 -12.7442
ltibia 63.5696
lfoot -27.6799 -1.70224
ltoes -11.3633
456
root 5.9018 15.6749 -21.2197 -2.74005 4.85259 -2.83329
lowerback 19.3137 -0.544591 5.09706
upperback 3.60294 0.719544 4.8859
thorax -6.91735 0.292652 2.19305
lowerneck -14.9241 -8.89268 -16.3688
upperneck -5.34796 -9.27623 12.9247
head 2.15859 -4.08644 5.95589
rclavicle 8.74653e-015 -7.95139e-015
rhumerus 40.2815 25.4567 -56.2042
rradius 92.7208
rwrist 24.2341
rhand -50.6548 26.2451
rfingers 7.12502
rthumb -23.2174 -2.37538
lclavicle 8.74653e-015 -7.95139e-015
lhumerus 39.971 -20.2471 79.1741
lradius 78.9231
lwrist 41.2383
lhand -32.056 26.1997
lfingers 7.12502
lthumb -5.30283 56.1134
rfemur -28.0078 -8.47926 17.8954
rtibia 67.3677
rfoot -30.8376 -15.6424
rtoes -11.9229
lfemur -29.8659 7.60569 -12.6796
ltibia 63.6999
lfoot -27.9024 -1.68426
ltoes -11.4094
457
root 5.90691 15.6638 -21.1822 -2.96168 4.94543 -2.86269
lowerback 19.0083 -0.496444 5.04742
upperback 3.44352 0.759249 4.9034
thorax -6.92768 0.312185 2.22902
lowerneck -14.7875 -8.93549 -16.4302
upperneck -5.00068 -9.36312 12.7827
head 2.24668 -4.13873 5.90828
rclavicle 1.98785e-014 -1.11319e-014
rhumerus 41.8153 24.4913 -55.4594
rradius 92.846
rwrist 24.2698
rhand -50.9071 26.6381
rfingers 7.12502
rthumb -23.4595 -1.95173
lclavicle 1.98785e-014 -1.11319e-014
lhumerus 41.8447 -19.7312 78.1113
lradius 79.249
lwrist 41.0167
lhand -32.2022 25.8932
lfingers 7.12502
lthumb -5.44395 55.8032
rfemur -27.6162 -8.65957 17.8408
rtibia 67.4345
rfoot -31.0445 -15.6454
rtoes -11.9526
lfemur -29.5439 7.59694 -12.6158
ltibia 63.8205
lfoot -28.1185 -1.6662
ltoes -11.4664
458
root 5.91163 15.6535 -21.1445 -3.16235 5.03479 -2.889
lowerback 18.75 -0.420479 5.08238
upperback 3.24605 0.851459 4.82479
thorax -7.00144 0.353121 2.10146
lowerneck -14.5989 -8.98749 -16.3156
upperneck -4.6997 -9.49625 12.6445
head 2.31291 -4.21773 5.83186
rclavicle -1.98785e-015 -6.36111e-015
rhumerus 43.1354 23.3746 -54.9489
rradius 92.9637
rwrist 24.2591
rhand -51.0336 27.0368
rfingers 7.12502
rthumb -23.5809 -1.53742
lclavicle -1.98785e-015 -6.36111e-015
lhumerus 43.7284 -19.3657 76.9848
lradius 79.5396
lwrist 40.8159
lhand -32.3249 25.6217
lfingers 7.12502
lthumb -5.56243 55.5287
rfemur -27.2441 -8.83225 17.7861
rtibia 67.495
rfoot -31.2497 -15.641
rtoes -11.9541
lfemur -29.2362 7.58674 -12.5549
ltibia 63.9319
lfoot -28.3279 -1.65393
ltoes -11.5058
459
root 5.91593 15.6442 -21.1066 -3.34151 5.12165 -2.91738
lowerback 18.5338 -0.335162 5.15457
upperback 3.01769 0.965582 4.704
thorax -7.12912 0.402006 1.90328
lowerneck -14.3923 -9.05261 -16.1249
upperneck -4.40131 -9.66143 12.5104
head 2.37694 -4.31388 5.74232
rclavicle -3.97569e-015 -2.8625e-014
rhumerus 44.3274 22.2033 -54.5698
rradius 93.0305
rwrist 24.3173
rhand -51.1946 27.4584
rfingers 7.12502
rthumb -23.7352 -1.09585
lclavicle -3.97569e-015 -2.8625e-014
lhumerus 45.5906 -19.0389 75.866
lradius 79.7962
lwrist 40.6267
lhand -32.4408 25.3428
lfingers 7.12502
lthumb -5.67436 55.2468
rfemur -26.8925 -8.99782 17.7385
rtibia 67.5508
rfoot -31.4548 -15.6336
rtoes -11.927
lfemur -28.9457 7.57616 -12.4906
ltibia 64.0366
lfoot -28.5323 -1.64578
ltoes -11.5223
460
root 5.91975 15.6355 -21.0684 -3.49758 5.20876 -2.94466
lowerback 18.2901 -0.245942 5.22463
upperback 2.80041 1.08054 4.5775
thorax -7.22852 0.45125 1.70007
lowerneck -14.157 -9.1093 -15.9122
upperneck -4.20652 -9.8161 12.3784
head 2.40286 -4.40485 5.65442
rclavicle 8.15017e-015 -2.38542e-014
rhumerus 45.4905 21.0057 -54.241
rradius 93.0533
rwrist 24.4484
rhand -51.382 27.8457
rfingers 7.12502
rthumb -23.915 -0.685114
lclavicle 8.15017e-015 -2.38542e-014
lhumerus 47.4513 -18.6749 74.7838
lradius 80.0053
lwrist 40.4287
lhand -32.5649 24.973
lfingers 7.12502
lthumb -5.79414 54.8738
rfemur -26.5627 -9.15743 17.6952
rtibia 67.604
rfoot -31.659 -15.6265
rtoes -11.8768
lfemur -28.6739 7.55826 -12.4267
ltibia 64.1352
lfoot -28.732 -1.63686
ltoes -11.5255
461
root 5.92306 15.627 -21.0299 -3.62657 5.29937 -2.97608
lowerback 18.0185 -0.147442 5.28592
upperback 2.58847 1.20342 4.45629
thorax -7.30578 0.504587 1.50607
lowerneck -13.9102 -9.16948 -15.6949
upperneck -4.05986 -9.97385 12.2478
head 2.4123 -4.49711 5.56771
rclavicle 4.77083e-015 3.33958e-014
rhumerus 46.6177 19.7884 -53.9403
rradius 93.044
rwrist 24.6179
rhand -51.5763 28.2074
rfingers 7.12502
rthumb -24.1013 -0.298869
lclavicle 4.77083e-015 3.33958e-014
lhumerus 49.2998 -18.2874 73.7655
lradius 80.1663
lwrist 40.2285
lhand -32.6875 24.4879
lfingers 7.12502
lthumb -5.91254 54.3854
rfemur -26.2622 -9.31352 17.6644
rtibia 67.6559
rfoot -31.8553 -15.631
rtoes -11.8413
lfemur -28.4311 7.53151 -12.3581
ltibia 64.2306
lfoot -28.9269 -1.62934
ltoes -11.521
462
root 5.92585 15.6194 -20.9911 -3.73887 5.39061 -3.0053
lowerback 17.7518 -0.0422656 5.33432
upperback 2.37269 1.33344 4.33843
thorax -7.3888 0.561273 1.32216
lowerneck -13.6576 -9.24464 -15.4956
upperneck -3.91706 -10.149 12.1347
head 2.42344 -4.59729 5.48818
rclavicle -9.34288e-015 -1.59028e-015
rhumerus 47.7012 18.5771 -53.6672
rradius 93.0024
rwrist 24.8077
rhand -51.7662 28.5692
rfingers 7.12502
rthumb -24.2834 0.087218
lclavicle -9.34288e-015 -1.59028e-015
lhumerus 51.108 -17.8815 72.8055
lradius 80.2786
lwrist 40.0354
lhand -32.8246 23.8682
lfingers 7.12502
lthumb -6.04489 53.7619
rfemur -25.9745 -9.46353 17.6375
rtibia 67.7019
rfoot -32.0465 -15.6466
rtoes -11.8193
lfemur -28.1981 7.4973 -12.2909
ltibia 64.3165
lfoot -29.1178 -1.61818
ltoes -11.4999
463
root 5.92823 15.6121 -20.952 -3.83737 5.4966 -3.03502
lowerback 17.4515 0.0670954 5.37719
upperback 2.17547 1.46391 4.22368
thorax -7.43207 0.618962 1.14523
lowerneck -13.3976 -9.32225 -15.2958
upperneck -3.83119 -10.324 12.0258
head 2.416 -4.69699 5.41177
rclavicle 2.24627e-014 3.33958e-014
rhumerus 48.7639 17.3549 -53.4177
rradius 92.9469
rwrist 25.0027
rhand -51.9664 29.0253
rfingers 7.12502
rthumb -24.4753 0.569121
lclavicle 2.24627e-014 3.33958e-014
lhumerus 52.905 -17.4579 71.9168
lradius 80.3433
lwrist 39.8193
lhand -32.9453 23.1499
lfingers 7.12502
lthumb -6.16145 53.0403
rfemur -25.6953 -9.62118 17.6149
rtibia 67.7397
rfoot -32.2287 -15.6733
rtoes -11.8308
lfemur -27.9799 7.44147 -12.225
ltibia 64.393
lfoot -29.3026 -1.60141
ltoes -11.4962
464
root 5.93034 15.6055 -20.9129 -3.93084 5.5999 -3.06139
lowerback 17.2047 0.178269 5.41653
upperback 1.95356 1.60209 4.10529
thorax -7.53014 0.678872 0.965629
lowerneck -13.1378 -9.40412 -15.1189
upperneck -3.70708 -10.5033 11.9374
head 2.4226 -4.79813 5.34451
rclavicle -1.35174e-014 -3.97569e-014
rhumerus 49.7547 16.1734 -53.2115
rradius 92.8979
rwrist 25.1735
rhand -52.1637 29.5839
rfingers 7.12502
rthumb -24.6644 1.15343
lclavicle -1.35174e-014 -3.97569e-014
lhumerus 54.6195 -17.0388 71.1089
lradius 80.3544
lwrist 39.561
lhand -32.9859 22.4572
lfingers 7.12502
lthumb -6.20061 52.3465
rfemur -25.416 -9.77106 17.5916
rtibia 67.7666
rfoot -32.4011 -15.7105
rtoes -11.8723
lfemur -27.7598 7.38022 -12.1632
ltibia 64.456
lfoot -29.481 -1.57402
ltoes -11.5073
465
root 5.93215 15.6001 -20.874 -4.03032 5.69267 -3.09163
lowerback 17.0112 0.286732 5.45546
upperback 1.71734 1.74232 3.9896
thorax -7.67206 0.738423 0.78918
lowerneck -12.8623 -9.4827 -14.9652
upperneck -3.58683 -10.6766 11.8678
head 2.42686 -4.89596 5.28823
rclavicle 1.74931e-014 2.22639e-014
rhumerus 50.6981 15.0451 -53.0442
rradius 92.8446
rwrist 25.346
rhand -52.3658 30.2379
rfingers 7.12502
rthumb -24.8581 1.83398
lclavicle 1.74931e-014 2.22639e-014
lhumerus 56.2508 -16.6114 70.3697
lradius 80.3067
lwrist 39.259
lhand -32.9459 21.8069
lfingers 7.12502
lthumb -6.16196 51.6972
rfemur -25.1233 -9.90642 17.5753
rtibia 67.779
rfoot -32.5654 -15.7576
rtoes -11.9384
lfemur -27.5238 7.32024 -12.095
ltibia 64.5033
lfoot -29.6559 -1.54006
ltoes -11.5331
466
root 5.93387 15.5951 -20.8352 -4.12757 5.77471 -3.1244
lowerback 16.8297 0.390434 5.48934
upperback 1.48616 1.87663 3.88243
thorax -7.81473 0.795018 0.626361
lowerneck -12.5809 -9.54997 -14.8509
upperneck -3.49619 -10.8284 11.8274
head 2.42223 -4.98192 5.25052
rclavicle 2.71341e-014 1.74931e-014
rhumerus 51.6296 13.9675 -52.9009
rradius 92.7913
rwrist 25.531
rhand -52.5766 30.9687
rfingers 7.12502
rthumb -25.0601 2.59288
lclavicle 2.71341e-014 1.74931e-014
lhumerus 57.8216 -16.1599 69.6941
lradius 80.2037
lwrist 38.929
lhand -32.7038 21.3752
lfingers 7.12502
lthumb -5.92822 51.2722
rfemur -24.8314 -10.027 17.5639
rtibia 67.7824
rfoot -32.7245 -15.8034
rtoes -12.0051
lfemur -27.2842 7.26338 -12.0234
ltibia 64.54
lfoot -29.8263 -1.50297
ltoes -11.5648
467
root 5.93558 15.591 -20.797 -4.23062 5.83718 -3.15905
lowerback 16.6815 0.488585 5.50488
upperback 1.26064 2.00435 3.79565
thorax -7.97061 0.848827 0.497234
lowerneck -12.3329 -9.62121 -14.7937
upperneck -3.37469 -10.9748 11.8154
head 2.43586 -5.06316 5.2292
rclavicle 3.0911e-014 3.81667e-014
rhumerus 52.5638 12.9583 -52.7584
rradius 92.7336
rwrist 25.7312
rhand -52.8027 31.7617
rfingers 7.12502
rthumb -25.2768 3.4163
lclavicle 3.0911e-014 3.81667e-014
lhumerus 59.3229 -15.6732 69.0895
lradius 80.0634
lwrist 38.6016
lhand -32.3864 21.0701
lfingers 7.12502
lthumb -5.62179 50.9756
rfemur -24.5327 -10.1248 17.5554
rtibia 67.777
rfoot -32.8775 -15.8444
rtoes -12.0753
lfemur -27.0292 7.21421 -11.9486
ltibia 64.5651
lfoot -29.9894 -1.45302
ltoes -11.6015
468
root 5.9374 15.5873 -20.7592 -4.32934 5.89403 -3.19653
lowerback 16.5203 0.573471 5.50525
upperback 1.059 2.11097 3.73146
thorax -8.09482 0.894159 0.406015
lowerneck -12.126 -9.68922 -14.7872
upperneck -3.25912 -11.1041 11.8244
head 2.4557 -5.13361 5.22263
rclavicle 5.96354e-015 1.59028e-015
rhumerus 53.5342 12.0102 -52.612
rradius 92.6673
rwrist 25.9621
rhand -53.0652 32.5165
rfingers 7.12502
rthumb -25.5282 4.20687
lclavicle 5.96354e-015 1.59028e-015
lhumerus 60.7744 -15.1346 68.5255
lradius 79.8934
lwrist 38.3094
lhand -32.0424 20.8762
lfingers 7.12502
lthumb -5.28966 50.7902
rfemur -24.2406 -10.214 17.5513
rtibia 67.7701
rfoot -33.023 -15.884
rtoes -12.1595
lfemur -26.7778 7.15916 -11.8736
ltibia 64.5848
lfoot -30.1445 -1.38781
ltoes -11.6497
